<svg xmlns="http://www.w3.org/2000/svg" viewBox="0 0 96 96" role="img" aria-labelledby="title desc">
  <title id="title">Kleines Hinzelmaennchen</title>
  <desc id="desc">Ein freundliches kleines Maskottchen mit Muetze und Laterne.</desc>
  <defs>
    <linearGradient id="cap" x1="18" y1="16" x2="70" y2="54" gradientUnits="userSpaceOnUse">
      <stop stop-color="#5DADE2"/>
      <stop offset="1" stop-color="#2E86C1"/>
    </linearGradient>
    <linearGradient id="light" x1="58" y1="52" x2="78" y2="78" gradientUnits="userSpaceOnUse">
      <stop stop-color="#FAF7F2"/>
      <stop offset="1" stop-color="#FAF7F2"/>
    </linearGradient>
    <filter id="shadow" x="6" y="5" width="84" height="88" color-interpolation-filters="sRGB" filterUnits="userSpaceOnUse">
      <feDropShadow dx="0" dy="5" stdDeviation="4" flood-color="#2C3E50" flood-opacity=".18"/>
    </filter>
  </defs>
  <g filter="url(#shadow)">
    <path fill="url(#cap)" d="M22 41c4-18 16-28 35-31 2 12-2 23-10 33 12-1 21 4 27 15-15 3-30 1-45-6-6-3-8-7-7-11Z"/>
    <circle cx="43" cy="50" r="20" fill="#FAF7F2"/>
    <path fill="#2C3E50" d="M25 48c4-8 12-13 23-14 2 9 0 17-6 24-8-1-14-4-17-10Z" opacity=".12"/>
    <circle cx="36" cy="49" r="3" fill="#2C3E50"/>
    <circle cx="51" cy="49" r="3" fill="#2C3E50"/>
    <path fill="none" stroke="#FAF7F2" stroke-linecap="round" stroke-width="3" d="M39 59c5 4 11 4 16 0"/>
    <path fill="#FFFFFF" d="M23 63c3-7 10-11 20-11s18 4 21 11v14H23V63Z"/>
    <path fill="#5DADE2" d="M28 65c4 4 9 6 15 6s11-2 15-6v15H28V65Z"/>
    <path fill="none" stroke="#2C3E50" stroke-linecap="round" stroke-width="4" d="M64 58c8 2 12 8 12 17"/>
    <rect width="18" height="21" x="64" y="65" fill="url(#light)" rx="6"/>
    <path fill="none" stroke="#2C3E50" stroke-linecap="round" stroke-width="3" d="M68 65v-5h10v5"/>
    <path fill="#FFFFFF" d="M69 70c3-2 6-2 9 0-1 5-4 8-9 10V70Z" opacity=".45"/>
    <path fill="#FAF7F2" d="M20 36c-4 0-7-3-7-7s3-7 7-7c3 0 6 2 7 5-5 2-7 5-7 9Z"/>
  </g>
</svg>
